<svg id="icon-data-analysis" xmlns="http://www.w3.org/2000/svg" viewBox="0 0 32 32"><path d="M29.625,16.498c-.267-.251-.659-.408-1.178-.473v-.026c.439-.105,.781-.299,1.024-.58s.364-.622,.364-1.024c0-.479-.192-.854-.578-1.125-.385-.269-.911-.404-1.576-.404-.812,0-1.51,.211-2.096,.633l.628,.937c.267-.173,.509-.294,.728-.364s.433-.105,.644-.105c.609,0,.914,.243,.914,.729,0,.316-.115,.54-.345,.671-.23,.13-.594,.195-1.092,.195h-.497v1.042h.488c.539,0,.932,.062,1.178,.188s.369,.34,.369,.642c0,.337-.107,.582-.321,.734s-.545,.229-.993,.229c-.293,0-.589-.04-.888-.119s-.572-.182-.821-.308v1.155c.539,.232,1.157,.348,1.854,.348,.832,0,1.472-.172,1.92-.517,.448-.344,.673-.825,.673-1.443,0-.425-.134-.763-.4-1.013Z" style="fill:#003c57;"/><path d="M2.051,14.605l.655,.818,.738-.594c.088-.07,.244-.218,.47-.443l-.021,.668-.014,.61v3.718h1.358v-6.425h-1.116l-2.07,1.647Z" style="fill:#003c57;"/><path d="M24.379,21.84c-.303-.303-.793-.303-1.096,0l-.339,.339-.735-.735c2.726-3.345,2.53-8.277-.587-11.394-1.663-1.663-3.842-2.494-6.022-2.494s-4.359,.831-6.022,2.494c-3.326,3.326-3.326,8.718,0,12.044,1.663,1.663,3.843,2.494,6.022,2.494,1.906,0,3.811-.636,5.372-1.907l.735,.735-.339,.339c-.303,.303-.303,.793,0,1.096l4.922,4.922c.303,.303,.793,.303,1.096,0l1.916-1.915c.302-.303,.302-.793,0-1.096l-4.922-4.922Zm-13.563-.983c-2.638-2.638-2.638-6.931,0-9.569,1.278-1.278,2.978-1.982,4.785-1.982s3.506,.704,4.785,1.982c1.278,1.278,1.982,2.977,1.982,4.785s-.704,3.507-1.982,4.785c-1.278,1.278-2.977,1.982-4.785,1.982s-3.506-.704-4.785-1.982Z" style="fill:#003c57;"/><path d="M14.85,18.651l1.056-.993c.704-.645,1.195-1.14,1.474-1.488,.279-.349,.485-.688,.618-1.02,.133-.331,.199-.686,.199-1.063,0-.435-.108-.82-.326-1.157s-.522-.599-.916-.786c-.393-.187-.846-.28-1.358-.28-.39,0-.741,.038-1.056,.115-.314,.076-.604,.186-.871,.328s-.601,.386-1.005,.729l.943,1.118c.326-.27,.639-.478,.938-.624,.299-.146,.608-.219,.926-.219,.304,0,.546,.081,.728,.242,.182,.16,.272,.405,.272,.735,0,.221-.042,.434-.124,.64-.082,.206-.217,.43-.404,.671-.187,.242-.586,.675-1.196,1.3l-2.061,2.084v1.207h5.739v-1.46h-3.577v-.079Z" style="fill:#003c57;"/></svg>
