<svg id="icon-identity" xmlns="http://www.w3.org/2000/svg" viewBox="0 0 64 64"><g><rect x="4" y="14.03" width="56" height="36" rx="3" style="fill:#003c57"/><path d="M36,26.5H52a1.5,1.5,0,0,0,0-3H36a1.5,1.5,0,0,0,0,3Z" style="fill:#fff"/><path d="M52,30.5H36a1.5,1.5,0,0,0,0,3H52a1.5,1.5,0,0,0,0-3Z" style="fill:#fff"/><path d="M52,37.5H36a1.5,1.5,0,0,0,0,3H52a1.5,1.5,0,0,0,0-3Z" style="fill:#fff"/><rect x="9" y="20" width="20" height="24" style="fill:#99b1bc"/><path d="M20.33,33H17.67A6.67,6.67,0,0,0,11,39.65H27A6.67,6.67,0,0,0,20.33,33Z" style="fill:#003c57"/><circle cx="19" cy="27.65" r="4" style="fill:#003c57"/></g></svg>
