<svg id="icon-news" xmlns="http://www.w3.org/2000/svg" viewBox="0 0 64 64"><g><path d="M14,12H58a2,2,0,0,1,2,2V48a4,4,0,0,1-4,4H13.7A1.7,1.7,0,0,1,12,50.3V14A2,2,0,0,1,14,12Z" style="fill:#003c57"/><rect x="8.02" y="44.1" width="7.9" height="7.9" style="fill:#003c57"/><path d="M6,24h6a0,0,0,0,1,0,0V48a4,4,0,0,1-4,4H8a4,4,0,0,1-4-4V26A2,2,0,0,1,6,24Z" style="fill:#4d7789"/><path d="M25.67,26.85H23.34l-3.76-6.48h-.06c.08,1.14.12,2,.12,2.45v4H18V18.28h2.31l3.76,6.42h0c-.06-1.12-.09-1.9-.09-2.36V18.28h1.65Z" style="fill:#fff"/><path d="M33,26.85H28V18.28h5v1.49H29.87v1.88H32.8v1.49H29.87v2.21H33Z" style="fill:#fff"/><path d="M44.4,26.85H42.31l-1.17-4.5c0-.16-.12-.49-.22-1s-.17-.84-.19-1c0,.22-.08.55-.17,1s-.17.8-.22,1l-1.17,4.49H37.09l-2.21-8.57h1.81L37.79,23a22.78,22.78,0,0,1,.42,2.24c0-.22.08-.57.17-1a9,9,0,0,1,.24-1.09l1.26-4.8h1.73l1.26,4.8c.06.22.13.54.21,1s.14.82.19,1.13c0-.3.1-.68.19-1.14s.16-.82.23-1.1l1.1-4.68H46.6Z" style="fill:#fff"/><path d="M53.71,24.47a2.23,2.23,0,0,1-.85,1.83,3.7,3.7,0,0,1-2.34.67,5.67,5.67,0,0,1-2.46-.52V24.76a10.63,10.63,0,0,0,1.49.55,4.64,4.64,0,0,0,1.11.16,1.58,1.58,0,0,0,.92-.23.78.78,0,0,0,.33-.68.72.72,0,0,0-.15-.45,1.52,1.52,0,0,0-.41-.38c-.19-.12-.56-.31-1.12-.58A4.88,4.88,0,0,1,49,22.44a2.56,2.56,0,0,1-.64-.79,2.2,2.2,0,0,1-.23-1,2.22,2.22,0,0,1,.77-1.79,3.29,3.29,0,0,1,2.16-.65,4.93,4.93,0,0,1,1.28.16,8.11,8.11,0,0,1,1.28.44l-.59,1.41a11.16,11.16,0,0,0-1.14-.39,4,4,0,0,0-.89-.11,1.18,1.18,0,0,0-.8.24.78.78,0,0,0-.28.63.82.82,0,0,0,.11.42,1.32,1.32,0,0,0,.36.34,11.21,11.21,0,0,0,1.16.6,4.81,4.81,0,0,1,1.67,1.15A2.31,2.31,0,0,1,53.71,24.47Z" style="fill:#fff"/><rect x="18.16" y="31.81" width="16.76" height="13.45" style="fill:#fff"/><path d="M52.57,34.45h-14a1.25,1.25,0,0,1,0-2.5h14a1.25,1.25,0,0,1,0,2.5Z" style="fill:#fff"/><path d="M52.57,39.85h-14a1.25,1.25,0,0,1,0-2.5h14a1.25,1.25,0,0,1,0,2.5Z" style="fill:#fff"/><path d="M52.57,45.25h-14a1.25,1.25,0,1,1,0-2.5h14a1.25,1.25,0,0,1,0,2.5Z" style="fill:#fff"/></g></svg>
