<svg id="icon-pass" xmlns="http://www.w3.org/2000/svg" viewBox="0 0 64 64"><g><rect x="4" y="14" width="56" height="36" rx="3" style="fill:#003c57"/><path d="M36,27.5H52a1.5,1.5,0,0,0,0-3H36a1.5,1.5,0,0,0,0,3Z" style="fill:#fff"/><path d="M52,31.5H36a1.5,1.5,0,0,0,0,3H52a1.5,1.5,0,0,0,0-3Z" style="fill:#fff"/><path d="M52,38.5H36a1.5,1.5,0,0,0,0,3H52a1.5,1.5,0,0,0,0-3Z" style="fill:#fff"/><path d="M21.67,34.67H18.33A8.33,8.33,0,0,0,10,43H30A8.33,8.33,0,0,0,21.67,34.67Z" style="fill:#fff"/><circle cx="20" cy="28" r="5" style="fill:#fff"/><path d="M35.12,6H28.88a.85.85,0,0,0-.88.82V17.18a.85.85,0,0,0,.88.82h6.24a.85.85,0,0,0,.88-.82V6.82A.85.85,0,0,0,35.12,6ZM32,12a2,2,0,1,1,2-2A2,2,0,0,1,32,12Z" style="fill:#4d7789"/></g></svg>
